<svg width="185" height="58" viewBox="0 0 185 58" fill="none" xmlns="http://www.w3.org/2000/svg">
<rect x="1.69615" y="1.69615" width="181.608" height="54.0506" rx="10.3038" fill="black"/>
<path d="M62.5431 17.9308V10.7706H64.5924C65.1559 10.7706 65.6298 10.8524 66.014 11.0161C66.3983 11.1712 66.7099 11.4039 66.949 11.714C67.1966 12.0156 67.3716 12.3861 67.4741 12.8256C67.5851 13.2564 67.6406 13.7475 67.6406 14.299C67.6406 14.8676 67.5808 15.3545 67.4613 15.7594C67.3503 16.1558 67.2051 16.4875 67.0258 16.7547C66.8465 17.0218 66.6416 17.2329 66.4111 17.388C66.1891 17.5431 65.9628 17.6637 65.7323 17.7499C65.5017 17.8274 65.284 17.8791 65.0791 17.905C64.8741 17.9222 64.7034 17.9308 64.5668 17.9308H62.5431ZM61.3264 9.73657V18.9648H64.4643C65.2242 18.9648 65.8817 18.8571 66.4367 18.6417C66.9917 18.4263 67.4485 18.116 67.8071 17.7111C68.1657 17.2975 68.4304 16.7934 68.6012 16.1989C68.772 15.5957 68.8573 14.9064 68.8573 14.131C68.8573 12.6489 68.4774 11.546 67.7175 10.8222C66.9575 10.0985 65.8731 9.73657 64.4643 9.73657H61.3264ZM71.2153 15.6302C71.2153 15.2252 71.2665 14.8676 71.3689 14.5575C71.4799 14.2387 71.6294 13.9715 71.8172 13.7561C72.0051 13.5407 72.2228 13.377 72.4704 13.265C72.7266 13.153 72.9955 13.097 73.2773 13.097C73.5591 13.097 73.8238 13.153 74.0714 13.265C74.3275 13.377 74.5495 13.5407 74.7374 13.7561C74.9252 13.9715 75.0704 14.2387 75.1728 14.5575C75.2838 14.8676 75.3393 15.2252 75.3393 15.6302C75.3393 16.0352 75.2838 16.3971 75.1728 16.7159C75.0704 17.0261 74.9252 17.2889 74.7374 17.5043C74.5495 17.7111 74.3275 17.8705 74.0714 17.9825C73.8238 18.0945 73.5591 18.1505 73.2773 18.1505C72.9955 18.1505 72.7266 18.0945 72.4704 17.9825C72.2228 17.8705 72.0051 17.7111 71.8172 17.5043C71.6294 17.2889 71.4799 17.0261 71.3689 16.7159C71.2665 16.3971 71.2153 16.0352 71.2153 15.6302ZM70.0626 15.6302C70.0626 16.1213 70.1309 16.578 70.2675 17.0002C70.4041 17.4224 70.609 17.793 70.8823 18.1117C71.1555 18.4219 71.4928 18.6675 71.8941 18.8485C72.2954 19.0208 72.7564 19.1069 73.2773 19.1069C73.8067 19.1069 74.2678 19.0208 74.6605 18.8485C75.0618 18.6675 75.3991 18.4219 75.6723 18.1117C75.9456 17.793 76.1505 17.4224 76.2871 17.0002C76.4237 16.578 76.492 16.1213 76.492 15.6302C76.492 15.1391 76.4237 14.6824 76.2871 14.2602C76.1505 13.8294 75.9456 13.4589 75.6723 13.1487C75.3991 12.8299 75.0618 12.58 74.6605 12.399C74.2678 12.2181 73.8067 12.1276 73.2773 12.1276C72.7564 12.1276 72.2954 12.2181 71.8941 12.399C71.4928 12.58 71.1555 12.8299 70.8823 13.1487C70.609 13.4589 70.4041 13.8294 70.2675 14.2602C70.1309 14.6824 70.0626 15.1391 70.0626 15.6302ZM84.5893 18.9648L86.7025 12.2827H85.5755L84.0898 17.7499H84.0642L82.681 12.2827H81.4898L80.1578 17.7499H80.1322L78.6337 12.2827H77.4298L79.5559 18.9648H80.7342L82.0662 13.6527H82.0918L83.4366 18.9648H84.5893ZM87.9937 12.2827V18.9648H89.0824V15.1908C89.0824 14.8892 89.1208 14.6135 89.1977 14.3636C89.283 14.1051 89.4069 13.8811 89.5691 13.6915C89.7313 13.5019 89.9319 13.3555 90.171 13.2521C90.4187 13.1487 90.7089 13.097 91.0419 13.097C91.4604 13.097 91.7891 13.2176 92.0282 13.4589C92.2672 13.7001 92.3868 14.0275 92.3868 14.4411V18.9648H93.4754V14.5704C93.4754 14.2085 93.437 13.8811 93.3602 13.5881C93.2919 13.2865 93.168 13.0281 92.9887 12.8126C92.8094 12.5972 92.5746 12.4292 92.2843 12.3086C91.994 12.188 91.6311 12.1276 91.1957 12.1276C90.2137 12.1276 89.4965 12.5326 89.0439 13.3426H89.0184V12.2827H87.9937ZM95.4307 9.73657V18.9648H96.5194V9.73657H95.4307ZM99.2561 15.6302C99.2561 15.2252 99.3073 14.8676 99.4098 14.5575C99.521 14.2387 99.6703 13.9715 99.8583 13.7561C100.046 13.5407 100.264 13.377 100.511 13.265C100.767 13.153 101.036 13.097 101.318 13.097C101.6 13.097 101.865 13.153 102.112 13.265C102.369 13.377 102.59 13.5407 102.778 13.7561C102.966 13.9715 103.111 14.2387 103.214 14.5575C103.325 14.8676 103.38 15.2252 103.38 15.6302C103.38 16.0352 103.325 16.3971 103.214 16.7159C103.111 17.0261 102.966 17.2889 102.778 17.5043C102.59 17.7111 102.369 17.8705 102.112 17.9825C101.865 18.0945 101.6 18.1505 101.318 18.1505C101.036 18.1505 100.767 18.0945 100.511 17.9825C100.264 17.8705 100.046 17.7111 99.8583 17.5043C99.6703 17.2889 99.521 17.0261 99.4098 16.7159C99.3073 16.3971 99.2561 16.0352 99.2561 15.6302ZM98.1034 15.6302C98.1034 16.1213 98.1717 16.578 98.3083 17.0002C98.4449 17.4224 98.6499 17.793 98.9231 18.1117C99.1963 18.4219 99.5336 18.6675 99.935 18.8485C100.336 19.0208 100.797 19.1069 101.318 19.1069C101.848 19.1069 102.309 19.0208 102.701 18.8485C103.103 18.6675 103.44 18.4219 103.713 18.1117C103.987 17.793 104.191 17.4224 104.328 17.0002C104.464 16.578 104.533 16.1213 104.533 15.6302C104.533 15.1391 104.464 14.6824 104.328 14.2602C104.191 13.8294 103.987 13.4589 103.713 13.1487C103.44 12.8299 103.103 12.58 102.701 12.399C102.309 12.2181 101.848 12.1276 101.318 12.1276C100.797 12.1276 100.336 12.2181 99.935 12.399C99.5336 12.58 99.1963 12.8299 98.9231 13.1487C98.6499 13.4589 98.4449 13.8294 98.3083 14.2602C98.1717 14.6824 98.1034 15.1391 98.1034 15.6302ZM111.939 18.9389C111.751 19.0509 111.49 19.1069 111.157 19.1069C110.876 19.1069 110.649 19.0294 110.478 18.8743C110.316 18.7106 110.235 18.4478 110.235 18.0859C109.936 18.4478 109.586 18.7106 109.185 18.8743C108.792 19.0294 108.365 19.1069 107.904 19.1069C107.605 19.1069 107.319 19.0725 107.046 19.0036C106.781 18.9346 106.551 18.8269 106.354 18.6804C106.158 18.534 106 18.3444 105.881 18.1117C105.769 17.8705 105.714 17.5818 105.714 17.2458C105.714 16.8667 105.778 16.5565 105.906 16.3152C106.034 16.074 106.201 15.8801 106.405 15.7336C106.619 15.5785 106.858 15.4622 107.123 15.3847C107.396 15.3071 107.674 15.2425 107.955 15.1908C108.254 15.1305 108.536 15.0874 108.801 15.0615C109.074 15.0271 109.313 14.984 109.518 14.9323C109.723 14.872 109.885 14.7901 110.005 14.6867C110.124 14.5747 110.184 14.4153 110.184 14.2085C110.184 13.9672 110.137 13.7734 110.043 13.6269C109.958 13.4804 109.842 13.3684 109.697 13.2909C109.56 13.2133 109.403 13.1616 109.223 13.1358C109.052 13.1099 108.882 13.097 108.711 13.097C108.25 13.097 107.866 13.1874 107.558 13.3684C107.251 13.5407 107.085 13.8725 107.059 14.3636H105.97C105.987 13.95 106.073 13.601 106.226 13.3167C106.38 13.0324 106.585 12.804 106.841 12.6317C107.097 12.4508 107.387 12.3215 107.712 12.244C108.045 12.1664 108.399 12.1276 108.775 12.1276C109.074 12.1276 109.368 12.1492 109.659 12.1923C109.958 12.2353 110.227 12.3258 110.466 12.4637C110.705 12.5929 110.897 12.7782 111.042 13.0194C111.187 13.2607 111.26 13.5752 111.26 13.9629V17.4009C111.26 17.6594 111.272 17.849 111.298 17.9696C111.332 18.0902 111.435 18.1505 111.606 18.1505C111.7 18.1505 111.81 18.129 111.939 18.0859V18.9389ZM110.171 15.5139C110.035 15.6173 109.855 15.6948 109.633 15.7465C109.411 15.7896 109.176 15.8284 108.929 15.8629C108.69 15.8887 108.446 15.9232 108.199 15.9662C107.951 16.0007 107.729 16.061 107.533 16.1472C107.336 16.2334 107.174 16.3583 107.046 16.522C106.926 16.6771 106.867 16.8925 106.867 17.1682C106.867 17.3492 106.901 17.5043 106.969 17.6335C107.046 17.7542 107.14 17.8532 107.251 17.9308C107.37 18.0084 107.507 18.0644 107.661 18.0988C107.815 18.1333 107.977 18.1505 108.148 18.1505C108.506 18.1505 108.813 18.1031 109.07 18.0084C109.326 17.905 109.535 17.78 109.697 17.6335C109.86 17.4784 109.979 17.3147 110.056 17.1424C110.133 16.9615 110.171 16.7934 110.171 16.6383V15.5139ZM114.002 15.6819C114.002 15.3545 114.036 15.0357 114.105 14.7255C114.173 14.4153 114.284 14.1396 114.438 13.8983C114.591 13.657 114.796 13.4632 115.052 13.3167C115.308 13.1702 115.62 13.097 115.987 13.097C116.363 13.097 116.683 13.1702 116.948 13.3167C117.213 13.4546 117.426 13.6398 117.588 13.8725C117.759 14.1051 117.883 14.3765 117.96 14.6867C118.037 14.9883 118.075 15.3028 118.075 15.6302C118.075 15.9404 118.037 16.2463 117.96 16.5479C117.891 16.8494 117.776 17.1209 117.614 17.3621C117.451 17.5948 117.242 17.7843 116.986 17.9308C116.73 18.0773 116.418 18.1505 116.051 18.1505C115.701 18.1505 115.394 18.0816 115.129 17.9437C114.873 17.8059 114.66 17.6206 114.489 17.388C114.326 17.1553 114.203 16.8925 114.117 16.5995C114.04 16.298 114.002 15.9921 114.002 15.6819ZM119.125 18.9648V9.73657H118.037V13.1745H118.011C117.891 12.9764 117.742 12.8126 117.562 12.6834C117.392 12.5455 117.208 12.4378 117.012 12.3603C116.815 12.2741 116.619 12.2138 116.423 12.1793C116.226 12.1449 116.043 12.1276 115.872 12.1276C115.368 12.1276 114.924 12.2224 114.54 12.412C114.164 12.5929 113.848 12.8428 113.592 13.1616C113.344 13.4718 113.156 13.838 113.029 14.2602C112.909 14.6824 112.849 15.1305 112.849 15.6044C112.849 16.0783 112.913 16.5263 113.042 16.9485C113.169 17.3707 113.357 17.7412 113.605 18.06C113.861 18.3789 114.177 18.6331 114.553 18.8226C114.937 19.0122 115.385 19.1069 115.897 19.1069C116.359 19.1069 116.781 19.0251 117.166 18.8614C117.55 18.6977 117.831 18.4305 118.011 18.06H118.037V18.9648H119.125ZM125.671 15.6302C125.671 15.2252 125.722 14.8676 125.825 14.5575C125.936 14.2387 126.085 13.9715 126.273 13.7561C126.461 13.5407 126.679 13.377 126.926 13.265C127.182 13.153 127.451 13.097 127.733 13.097C128.015 13.097 128.279 13.153 128.527 13.265C128.783 13.377 129.005 13.5407 129.193 13.7561C129.381 13.9715 129.526 14.2387 129.629 14.5575C129.739 14.8676 129.795 15.2252 129.795 15.6302C129.795 16.0352 129.739 16.3971 129.629 16.7159C129.526 17.0261 129.381 17.2889 129.193 17.5043C129.005 17.7111 128.783 17.8705 128.527 17.9825C128.279 18.0945 128.015 18.1505 127.733 18.1505C127.451 18.1505 127.182 18.0945 126.926 17.9825C126.679 17.8705 126.461 17.7111 126.273 17.5043C126.085 17.2889 125.936 17.0261 125.825 16.7159C125.722 16.3971 125.671 16.0352 125.671 15.6302ZM124.518 15.6302C124.518 16.1213 124.587 16.578 124.723 17.0002C124.86 17.4224 125.065 17.793 125.338 18.1117C125.611 18.4219 125.948 18.6675 126.35 18.8485C126.751 19.0208 127.212 19.1069 127.733 19.1069C128.262 19.1069 128.723 19.0208 129.116 18.8485C129.517 18.6675 129.855 18.4219 130.128 18.1117C130.401 17.793 130.606 17.4224 130.743 17.0002C130.88 16.578 130.948 16.1213 130.948 15.6302C130.948 15.1391 130.88 14.6824 130.743 14.2602C130.606 13.8294 130.401 13.4589 130.128 13.1487C129.855 12.8299 129.517 12.58 129.116 12.399C128.723 12.2181 128.262 12.1276 127.733 12.1276C127.212 12.1276 126.751 12.2181 126.35 12.399C125.948 12.58 125.611 12.8299 125.338 13.1487C125.065 13.4589 124.86 13.8294 124.723 14.2602C124.587 14.6824 124.518 15.1391 124.518 15.6302ZM132.487 12.2827V18.9648H133.576V15.1908C133.576 14.8892 133.615 14.6135 133.691 14.3636C133.777 14.1051 133.9 13.8811 134.063 13.6915C134.225 13.5019 134.426 13.3555 134.665 13.2521C134.912 13.1487 135.203 13.097 135.536 13.097C135.954 13.097 136.283 13.2176 136.522 13.4589C136.761 13.7001 136.881 14.0275 136.881 14.4411V18.9648H137.969V14.5704C137.969 14.2085 137.931 13.8811 137.854 13.5881C137.785 13.2865 137.662 13.0281 137.482 12.8126C137.303 12.5972 137.068 12.4292 136.778 12.3086C136.488 12.188 136.125 12.1276 135.69 12.1276C134.707 12.1276 133.99 12.5326 133.538 13.3426H133.512V12.2827H132.487ZM145.193 12.2827V10.2794H144.104V12.2827H142.977V13.2521H144.104V17.5043C144.104 17.8145 144.134 18.0644 144.194 18.2539C144.253 18.4435 144.343 18.59 144.463 18.6933C144.591 18.7968 144.753 18.87 144.949 18.9131C145.154 18.9476 145.397 18.9648 145.679 18.9648H146.512V17.9954H146.012C145.841 17.9954 145.701 17.9911 145.589 17.9825C145.487 17.9653 145.406 17.9351 145.346 17.892C145.286 17.849 145.244 17.7886 145.218 17.7111C145.201 17.6335 145.193 17.5302 145.193 17.4009V13.2521H146.512V12.2827H145.193ZM147.977 9.73657V18.9648H149.066V15.1908C149.066 14.8892 149.104 14.6135 149.181 14.3636C149.267 14.1051 149.39 13.8811 149.553 13.6915C149.715 13.5019 149.916 13.3555 150.154 13.2521C150.402 13.1487 150.693 13.097 151.026 13.097C151.444 13.097 151.773 13.2176 152.011 13.4589C152.251 13.7001 152.37 14.0275 152.37 14.4411V18.9648H153.459V14.5704C153.459 14.2085 153.421 13.8811 153.344 13.5881C153.275 13.2865 153.152 13.0281 152.972 12.8126C152.793 12.5972 152.558 12.4292 152.268 12.3086C151.978 12.188 151.615 12.1276 151.179 12.1276C150.983 12.1276 150.778 12.1492 150.564 12.1923C150.359 12.2353 150.159 12.3043 149.963 12.399C149.775 12.4852 149.604 12.6016 149.45 12.748C149.296 12.8859 149.177 13.0582 149.091 13.265H149.066V9.73657H147.977ZM159.948 14.984H156.144C156.161 14.7255 156.217 14.4842 156.311 14.2602C156.405 14.0275 156.533 13.8251 156.695 13.6527C156.857 13.4804 157.049 13.3469 157.271 13.2521C157.502 13.1487 157.758 13.097 158.04 13.097C158.313 13.097 158.561 13.1487 158.783 13.2521C159.013 13.3469 159.21 13.4804 159.372 13.6527C159.542 13.8165 159.675 14.0146 159.769 14.2473C159.871 14.4799 159.931 14.7255 159.948 14.984ZM160.998 16.8451H159.922C159.828 17.2846 159.632 17.612 159.333 17.8274C159.043 18.0428 158.667 18.1505 158.206 18.1505C157.848 18.1505 157.536 18.0902 157.271 17.9696C157.006 17.849 156.789 17.6895 156.618 17.4914C156.447 17.2846 156.324 17.0519 156.247 16.7934C156.17 16.5263 156.136 16.2463 156.144 15.9533H161.101C161.118 15.5484 161.079 15.1219 160.985 14.6738C160.9 14.2258 160.738 13.8122 160.499 13.433C160.269 13.0539 159.957 12.7437 159.564 12.5025C159.18 12.2526 158.693 12.1276 158.104 12.1276C157.651 12.1276 157.233 12.2138 156.849 12.3861C156.473 12.5585 156.144 12.7997 155.863 13.1099C155.589 13.4201 155.376 13.7863 155.222 14.2085C155.068 14.6307 154.992 15.096 154.992 15.6044C155.009 16.1128 155.081 16.5823 155.209 17.0131C155.346 17.444 155.547 17.8145 155.811 18.1247C156.076 18.4349 156.4 18.6761 156.785 18.8485C157.177 19.0208 157.639 19.1069 158.168 19.1069C158.919 19.1069 159.542 18.9174 160.038 18.5383C160.533 18.1591 160.853 17.5948 160.998 16.8451Z" fill="white"/>
<path d="M81.55 30.415C84.82 30.4151 86.9755 33.0235 86.9755 37.0527C86.9755 41.093 84.8326 43.6889 81.5987 43.6889C79.9271 43.7772 78.3526 42.8936 77.5449 41.4142H77.4837V47.8541H74.839V30.5511H77.3989V32.7136H77.4476C78.2912 31.2434 79.8674 30.3603 81.55 30.415ZM95.7307 30.4151C99.0008 30.4151 101.156 33.0235 101.156 37.0527C101.156 41.093 99.0133 43.6889 95.7794 43.6889C94.1079 43.7772 92.5333 42.8936 91.7256 41.4142H91.6644V47.8541H89.0197V30.5511H91.5796V32.7136H91.6282C92.4718 31.2434 94.0481 30.3603 95.7307 30.4151ZM114.717 25.4224C118.451 25.4224 121.011 27.5358 121.097 30.6127H118.428C118.268 28.833 116.81 27.7588 114.68 27.7588C112.549 27.7588 111.091 28.8457 111.091 30.4276C111.091 31.6884 112.023 32.4302 114.3 32.9982L116.247 33.4806C119.873 34.3459 121.38 35.8157 121.38 38.4241C121.38 41.7604 118.746 43.8501 114.557 43.8501C110.638 43.8501 107.992 41.8095 107.821 38.584L110.528 38.5841C110.725 40.3526 112.427 41.5137 114.753 41.5137C116.982 41.5137 118.586 40.3525 118.586 38.758C118.586 37.3738 117.619 36.5449 115.329 35.977L113.038 35.4202C109.793 34.6292 108.287 33.0978 108.287 30.6127C108.287 27.5358 110.944 25.4224 114.717 25.4224ZM137.067 30.3912C140.802 30.3912 143.179 32.9618 143.179 37.0527C143.179 41.1547 140.815 43.7142 137.067 43.7142C133.32 43.7142 130.956 41.1547 130.956 37.0527C130.956 32.9618 133.344 30.3912 137.067 30.3912ZM158.482 30.3912C162.047 30.3912 164.289 32.8623 164.289 36.8045V37.7188H155.189V37.8801C155.104 38.848 155.435 39.8062 156.098 40.5108C156.761 41.2154 157.692 41.5986 158.655 41.5628C159.938 41.6842 161.148 40.9405 161.63 39.7341H164.141C163.786 42.0943 161.508 43.7141 158.594 43.7141C154.845 43.7141 152.519 41.18 152.519 37.1144C152.519 33.0362 154.858 30.3912 158.482 30.3912ZM127.087 27.4742V30.5511H129.537V32.6645H127.087V39.8323C127.087 40.9458 127.578 41.4647 128.655 41.4647C128.946 41.4595 129.236 41.4389 129.525 41.4029V43.5037C129.041 43.595 128.548 43.6364 128.056 43.6271C125.447 43.6271 124.43 42.6384 124.43 40.1169V32.6645H122.557V30.5511H124.43V27.4742H127.087ZM66.8162 25.7197L73.1964 43.5529H70.2947L68.6784 38.7328H61.9424L60.3248 43.5529H57.4717L63.8519 25.7197H66.8162ZM151.042 30.415C151.347 30.414 151.65 30.4474 151.948 30.5146V33.0109C151.563 32.8922 151.162 32.8378 150.76 32.8496C149.982 32.8178 149.23 33.1305 148.7 33.7056C148.17 34.2807 147.916 35.0607 148.004 35.8409V43.5528H145.359V30.5511H147.882V32.764H147.943C148.294 31.3394 149.588 30.359 151.042 30.415ZM137.067 32.5902C134.924 32.5902 133.651 34.2591 133.651 37.0527C133.651 39.8701 134.924 41.5138 137.067 41.5138C139.21 41.5138 140.484 39.8701 140.484 37.0527C140.484 34.2464 139.21 32.5902 137.067 32.5902ZM80.8524 32.6897C78.8317 32.6897 77.4726 34.4568 77.4726 37.0527C77.4726 39.6724 78.8317 41.4268 80.8524 41.4268C82.9092 41.4268 84.2572 39.7088 84.2572 37.0527C84.2572 34.4204 82.9091 32.6897 80.8524 32.6897ZM95.0331 32.6897C93.0125 32.6897 91.6533 34.4568 91.6533 37.0527C91.6533 39.6724 93.0125 41.4268 95.0331 41.4268C97.0899 41.4268 98.438 39.7088 98.438 37.0527C98.438 34.4204 97.0899 32.6897 95.0331 32.6897ZM65.3473 28.6859H65.2737L62.6401 36.5085H67.9794L65.3473 28.6859ZM158.482 32.5537C157.612 32.5485 156.777 32.8941 156.16 33.5138C155.544 34.1334 155.199 34.9758 155.201 35.8536H161.642C161.691 34.9838 161.377 34.1333 160.777 33.5069C160.177 32.8805 159.345 32.535 158.482 32.5537Z" fill="white"/>
<path fill-rule="evenodd" clip-rule="evenodd" d="M30.8342 27.5628C30.8738 24.4863 32.4867 21.6446 35.1077 20.0333C33.4467 17.6611 30.7644 16.211 27.8699 16.1204C24.8247 15.8008 21.8725 17.9426 20.3207 17.9426C18.7389 17.9426 16.3497 16.1521 13.7769 16.2051C10.3918 16.3144 7.31239 18.1924 5.66546 21.1519C2.15825 27.2241 4.77431 36.1482 8.13393 41.0565C9.81482 43.46 11.7793 46.1447 14.3498 46.0495C16.8651 45.9452 17.8046 44.4455 20.8408 44.4455C23.8489 44.4455 24.7303 46.0495 27.3529 45.989C30.052 45.9452 31.7526 43.5748 33.3745 41.1486C34.5822 39.4361 35.5116 37.5433 36.1281 35.5405C32.9224 34.1846 30.8379 31.0435 30.8342 27.5628Z" fill="white"/>
<path fill-rule="evenodd" clip-rule="evenodd" d="M25.8804 13.3301C27.3521 11.5634 28.0771 9.29262 27.9015 7C25.6532 7.23615 23.5763 8.31073 22.0847 10.0096C20.6119 11.6858 19.8658 13.8787 20.0107 16.1053C22.2892 16.1288 24.4526 15.1059 25.8804 13.3301Z" fill="white"/>
<rect x="1.69615" y="1.69615" width="181.608" height="54.0506" rx="10.3038" stroke="#A6A6A6" stroke-width="3.39231"/>
</svg>
