<svg width="269" height="540" viewBox="0 0 269 540" fill="none" xmlns="http://www.w3.org/2000/svg">
<path d="M250 13.5C192.5 13.5 91.2296 79.5 92 155C93.5 302 242.5 303 250 386C256 452.4 166.833 468.666 103.5 488.5L-31.5 537.5" stroke="black" stroke-width="5" stroke-dasharray="10 10"/>
<path d="M126.534 199.09C123.055 199.416 111.311 200.765 106.452 201.327C107.769 205.083 108.877 209.181 109.428 212.972C112.874 214.992 119.387 218.923 120.065 220.188C121.232 222.359 120.852 222.968 118.563 222.667C116.274 222.366 108.798 221.657 108.798 221.657C108.798 221.657 103.641 227.027 102.12 228.736C100.599 230.445 99.9042 230.232 99.3327 227.843C99.0002 226.45 101.274 219.275 102.518 215.522C100.399 212.309 98.4936 208.505 96.9719 204.823C92.9375 207.549 83.1924 214.134 80.3555 216.142C77.8637 217.905 78.099 215.317 78.099 215.317C78.1871 214.131 78.6289 211.668 79.2898 210.58C83.3933 203.817 90.1135 193.41 91.6968 190.964L90.1801 186.974C84.0199 170.824 87.047 167.932 88.1529 167.523C89.2587 167.113 93.4709 167.333 99.634 183.484L101.158 187.469C103.984 188.286 116.006 191.776 123.619 194.211C124.844 194.604 126.826 196.173 127.683 197.007C127.682 197.01 129.589 198.808 126.534 199.09Z" fill="white"/>
<circle cx="255" cy="14" r="14" fill="black"/>
<circle cx="255" cy="14" r="5" fill="#004C93"/>
</svg>
