<svg width="185" height="58" viewBox="0 0 185 58" fill="none" xmlns="http://www.w3.org/2000/svg">
<rect x="1.69615" y="2.12071" width="181.608" height="54.0506" rx="10.3038" fill="black"/>
<path fill-rule="evenodd" clip-rule="evenodd" d="M6.55542 14.9015C6.20558 15.2718 6 15.8452 6 16.5894V43.1556C6 43.8998 6.20558 44.4732 6.55542 44.8435L6.64438 44.9301L21.5264 30.048V29.697L6.64438 14.8149L6.55542 14.9015Z" fill="#00D7FE"/>
<mask id="mask0_6_1404" style="mask-type:alpha" maskUnits="userSpaceOnUse" x="21" y="24" width="13" height="12">
<path d="M26.4856 35.0108L21.5265 30.0481V29.6971L26.488 24.7356L32.4773 28.1378C34.1556 29.0924 34.1556 30.6528 32.4773 31.6062L26.5998 34.9459L26.4856 35.0108Z" fill="white"/>
</mask>
<g mask="url(#mask0_6_1404)">
<path fill-rule="evenodd" clip-rule="evenodd" d="M26.4854 35.0108L21.5264 30.0481V29.6971L26.4878 24.7356L32.4772 28.1378C34.1555 29.0924 34.1555 30.6528 32.4772 31.6062L26.5997 34.9459L26.4854 35.0108Z" fill="url(#paint0_linear_6_1404)"/>
</g>
<mask id="mask1_6_1404" style="mask-type:alpha" maskUnits="userSpaceOnUse" x="6" y="29" width="21" height="17">
<path d="M26.5996 34.9456L21.5263 29.8723L6.5553 44.8433C7.10951 45.4288 8.02318 45.5009 9.05227 44.9166L26.5996 34.9456Z" fill="white"/>
</mask>
<g mask="url(#mask1_6_1404)">
<path fill-rule="evenodd" clip-rule="evenodd" d="M26.5997 34.9456L21.5264 29.8723L6.55542 44.8433C7.10963 45.4288 8.02331 45.5009 9.05239 44.9166L26.5997 34.9456Z" fill="url(#paint1_linear_6_1404)"/>
</g>
<mask id="mask2_6_1404" style="mask-type:alpha" maskUnits="userSpaceOnUse" x="6" y="14" width="21" height="16">
<path d="M26.5996 24.7993L9.05227 14.8282C8.02318 14.244 7.10951 14.3161 6.5553 14.9016L21.5263 29.8726L26.5996 24.7993Z" fill="white"/>
</mask>
<g mask="url(#mask2_6_1404)">
<path fill-rule="evenodd" clip-rule="evenodd" d="M26.5997 24.7993L9.05239 14.8282C8.02331 14.244 7.10963 14.3161 6.55542 14.9016L21.5264 29.8726L26.5997 24.7993Z" fill="url(#paint2_linear_6_1404)"/>
</g>
<path fill-rule="evenodd" clip-rule="evenodd" d="M136.519 40.5454H138.639V26.2825H136.519V40.5454ZM155.611 31.4202L153.181 37.6041H153.108L150.587 31.4202H148.304L152.085 40.0628L149.929 44.8708H152.141L157.968 31.4202H155.611ZM143.59 38.9253C142.895 38.9253 141.927 38.5773 141.927 37.7148C141.927 36.6138 143.134 36.1916 144.174 36.1916C145.107 36.1916 145.544 36.3936 146.111 36.6685C145.946 37.9898 144.814 38.9253 143.59 38.9253ZM143.846 31.1087C142.311 31.1087 140.722 31.7876 140.064 33.2925L141.946 34.0809C142.348 33.2925 143.096 33.0346 143.882 33.0346C144.978 33.0346 146.093 33.6952 146.111 34.8704V35.0164C145.727 34.7963 144.906 34.4665 143.9 34.4665C141.873 34.4665 139.807 35.5858 139.807 37.6771C139.807 39.5859 141.471 40.8159 143.334 40.8159C144.759 40.8159 145.544 40.1735 146.038 39.4205H146.111V40.5215H148.157V35.0541C148.157 32.5212 146.276 31.1087 143.846 31.1087ZM130.746 33.1567H127.731V28.2678H130.746C132.331 28.2678 133.23 29.5856 133.23 30.7117C133.23 31.8173 132.331 33.1567 130.746 33.1567ZM130.692 26.2825H125.613V40.5454H127.731V35.142H130.692C133.041 35.142 135.35 33.4328 135.35 30.7117C135.35 27.9905 133.041 26.2825 130.692 26.2825ZM102.996 38.9276C101.532 38.9276 100.306 37.6965 100.306 36.0056C100.306 34.2965 101.532 33.046 102.996 33.046C104.442 33.046 105.576 34.2965 105.576 36.0056C105.576 37.6965 104.442 38.9276 102.996 38.9276ZM105.429 32.2189H105.357C104.88 31.6495 103.966 31.135 102.813 31.135C100.397 31.135 98.1829 33.2662 98.1829 36.0056C98.1829 38.7257 100.397 40.8398 102.813 40.8398C103.966 40.8398 104.88 40.3252 105.357 39.7365H105.429V40.4348C105.429 42.2923 104.442 43.2849 102.85 43.2849C101.55 43.2849 100.745 42.347 100.415 41.5563L98.567 42.3287C99.0974 43.6157 100.507 45.1961 102.85 45.1961C105.338 45.1961 107.443 43.7253 107.443 40.1416V31.4282H105.429V32.2189ZM108.907 40.5454H111.031V26.2814H108.907V40.5454ZM114.159 35.8402C114.105 33.9656 115.605 33.0095 116.684 33.0095C117.527 33.0095 118.24 33.4317 118.478 34.0387L114.159 35.8402ZM120.748 34.2224C120.345 33.1385 119.118 31.135 116.612 31.135C114.123 31.135 112.055 33.1008 112.055 35.9874C112.055 38.7074 114.105 40.8398 116.849 40.8398C119.064 40.8398 120.345 39.4798 120.876 38.6892L119.229 37.5859C118.68 38.3948 117.929 38.9276 116.849 38.9276C115.77 38.9276 115.001 38.4313 114.507 37.4581L120.967 34.7746L120.748 34.2224ZM69.2798 32.6239V34.6822H74.1837C74.0371 35.8402 73.6532 36.6857 73.0682 37.2744C72.3537 37.9909 71.237 38.7804 69.2798 38.7804C66.2604 38.7804 63.8988 36.3365 63.8988 33.3039C63.8988 30.2701 66.2604 27.8262 69.2798 27.8262C70.9087 27.8262 72.0981 28.4697 72.9762 29.2969L74.4222 27.8445C73.1954 26.6682 71.5676 25.7668 69.2798 25.7668C65.1438 25.7668 61.6666 29.1497 61.6666 33.3039C61.6666 37.4581 65.1438 40.8398 69.2798 40.8398C71.5119 40.8398 73.1954 40.105 74.5131 38.7257C75.8671 37.3657 76.2886 35.4546 76.2886 33.9097C76.2886 33.4317 76.2522 32.9913 76.1784 32.6239H69.2798ZM81.865 38.9276C80.4007 38.9276 79.1376 37.7148 79.1376 35.9874C79.1376 34.2406 80.4007 33.046 81.865 33.046C83.3281 33.046 84.5913 34.2406 84.5913 35.9874C84.5913 37.7148 83.3281 38.9276 81.865 38.9276ZM81.865 31.135C79.1921 31.135 77.0145 33.175 77.0145 35.9874C77.0145 38.7804 79.1921 40.8398 81.865 40.8398C84.5367 40.8398 86.7144 38.7804 86.7144 35.9874C86.7144 33.175 84.5367 31.135 81.865 31.135ZM92.4441 38.9276C90.9799 38.9276 89.7167 37.7148 89.7167 35.9874C89.7167 34.2406 90.9799 33.046 92.4441 33.046C93.9084 33.046 95.1705 34.2406 95.1705 35.9874C95.1705 37.7148 93.9084 38.9276 92.4441 38.9276ZM92.4441 31.135C89.7724 31.135 87.5947 33.175 87.5947 35.9874C87.5947 38.7804 89.7724 40.8398 92.4441 40.8398C95.1159 40.8398 97.2935 38.7804 97.2935 35.9874C97.2935 33.175 95.1159 31.135 92.4441 31.135Z" fill="#FFFFFE"/>
<path d="M68.0438 16.9123V19.621C67.9551 19.7566 67.8139 19.909 67.6201 20.0784C67.4264 20.2444 67.1587 20.3901 66.8171 20.5155C66.4788 20.6375 66.042 20.6984 65.5067 20.6984C65.0699 20.6984 64.6675 20.6205 64.2997 20.4647C63.9351 20.3054 63.6182 20.075 63.3489 19.7735C63.0828 19.4686 62.8759 19.0993 62.7281 18.6656C62.5836 18.2286 62.5114 17.7339 62.5114 17.1817V16.6074C62.5114 16.0552 62.5738 15.5622 62.6986 15.1285C62.8266 14.6948 63.0139 14.3272 63.2602 14.0257C63.5065 13.7208 63.8087 13.4904 64.1667 13.3346C64.5247 13.1753 64.9352 13.0957 65.3983 13.0957C65.9468 13.0957 66.4049 13.194 66.7728 13.3905C67.1439 13.5836 67.4329 13.8512 67.6398 14.1934C67.8501 14.5356 67.9847 14.9252 68.0438 15.3623H67.093C67.0503 15.0946 66.9649 14.8507 66.8368 14.6305C66.712 14.4103 66.533 14.2341 66.2998 14.1019C66.0666 13.9664 65.7661 13.8987 65.3983 13.8987C65.0666 13.8987 64.7792 13.9613 64.5361 14.0867C64.2931 14.2121 64.0928 14.3916 63.9351 14.6254C63.7775 14.8592 63.6592 15.1421 63.5804 15.4741C63.5049 15.8061 63.4671 16.1805 63.4671 16.5972V17.1817C63.4671 17.6085 63.5147 17.9897 63.61 18.3251C63.7085 18.6605 63.8481 18.9468 64.0287 19.184C64.2094 19.4177 64.4245 19.5956 64.6741 19.7176C64.927 19.8396 65.2062 19.9006 65.5116 19.9006C65.8499 19.9006 66.1241 19.8718 66.3343 19.8141C66.5445 19.7532 66.7087 19.682 66.827 19.6007C66.9452 19.516 67.0355 19.4364 67.0979 19.3619V17.7051H65.4377V16.9123H68.0438ZM73.8746 19.7989V20.5968H70.0763V19.7989H73.8746ZM70.2684 13.1973V20.5968H69.3176V13.1973H70.2684ZM73.3721 16.3787V17.1766H70.0763V16.3787H73.3721ZM73.8254 13.1973V14.0003H70.0763V13.1973H73.8254ZM77.4984 13.1973V20.5968H76.5624V13.1973H77.4984ZM79.804 13.1973V14.0003H74.2617V13.1973H79.804ZM83.5881 13.1973V20.5968H82.6374V13.1973H83.5881ZM87.5173 13.1973V20.5968H86.5813V13.1973H87.5173ZM89.823 13.1973V14.0003H84.2806V13.1973H89.823ZM98.11 16.6633V17.1308C98.11 17.6865 98.0426 18.1845 97.9081 18.625C97.7732 19.0654 97.5796 19.4398 97.3268 19.7481C97.0736 20.0564 96.7699 20.2918 96.4153 20.4545C96.0637 20.6171 95.6698 20.6984 95.2329 20.6984C94.8092 20.6984 94.42 20.6171 94.0653 20.4545C93.7138 20.2918 93.4084 20.0564 93.1489 19.7481C92.8928 19.4398 92.694 19.0654 92.5528 18.625C92.4116 18.1845 92.341 17.6865 92.341 17.1308V16.6633C92.341 16.1076 92.41 15.6113 92.5479 15.1743C92.6891 14.7338 92.8878 14.3594 93.144 14.0511C93.4002 13.7394 93.704 13.5023 94.0554 13.3396C94.4101 13.177 94.7993 13.0957 95.223 13.0957C95.6599 13.0957 96.0538 13.177 96.4054 13.3396C96.76 13.5023 97.0637 13.7394 97.3169 14.0511C97.573 14.3594 97.7683 14.7338 97.9031 15.1743C98.0409 15.6113 98.11 16.1076 98.11 16.6633ZM97.1691 17.1308V16.6531C97.1691 16.2127 97.1245 15.8231 97.036 15.4843C96.9507 15.1455 96.8241 14.8609 96.6566 14.6305C96.489 14.4001 96.2838 14.2256 96.0409 14.107C95.801 13.9884 95.5284 13.9292 95.223 13.9292C94.9274 13.9292 94.6597 13.9884 94.42 14.107C94.1835 14.2256 93.9799 14.4001 93.8091 14.6305C93.6416 14.8609 93.5119 15.1455 93.4199 15.4843C93.328 15.8231 93.282 16.2127 93.282 16.6531V17.1308C93.282 17.5747 93.328 17.9677 93.4199 18.3099C93.5119 18.6487 93.6432 18.935 93.814 19.1687C93.9881 19.3991 94.1934 19.5736 94.4298 19.6922C94.6696 19.8108 94.9373 19.8701 95.2329 19.8701C95.5416 19.8701 95.8159 19.8108 96.0555 19.6922C96.2954 19.5736 96.4973 19.3991 96.6615 19.1687C96.8291 18.935 96.9557 18.6487 97.0409 18.3099C97.1262 17.9677 97.1691 17.5747 97.1691 17.1308ZM104.749 13.1973V20.5968H103.793L100.182 14.8897V20.5968H99.2309V13.1973H100.182L103.808 18.9197V13.1973H104.749Z" fill="white"/>
<rect x="1.69615" y="2.12071" width="181.608" height="54.0506" rx="10.3038" stroke="#A6A6A6" stroke-width="3.39231"/>
<defs>
<linearGradient id="paint0_linear_6_1404" x1="31.3854" y1="29.873" x2="21.5264" y2="29.873" gradientUnits="userSpaceOnUse">
<stop stop-color="#FFBC00"/>
<stop offset="1" stop-color="#FFDA03"/>
</linearGradient>
<linearGradient id="paint1_linear_6_1404" x1="23.8426" y1="34.646" x2="10.9748" y2="45.2525" gradientUnits="userSpaceOnUse">
<stop stop-color="#E22652"/>
<stop offset="1" stop-color="#FF3A44"/>
</linearGradient>
<linearGradient id="paint2_linear_6_1404" x1="8.82237" y1="16.7039" x2="17.4015" y2="24.2476" gradientUnits="userSpaceOnUse">
<stop stop-color="#0ED574"/>
<stop offset="1" stop-color="#07F076"/>
</linearGradient>
</defs>
</svg>
