<svg width="26" height="26" viewBox="0 0 26 26" fill="none" xmlns="http://www.w3.org/2000/svg">
<path d="M12.9967 8.66482C10.6096 8.66482 8.66157 10.6129 8.66157 13C8.66157 15.3871 10.6096 17.3352 12.9967 17.3352C15.3839 17.3352 17.3319 15.3871 17.3319 13C17.3319 10.6129 15.3839 8.66482 12.9967 8.66482ZM25.999 13C25.999 11.2048 26.0153 9.42584 25.9145 7.63387C25.8137 5.55247 25.3388 3.70522 23.8168 2.18319C22.2915 0.657911 20.4475 0.186343 18.3661 0.0855244C16.5709 -0.0152937 14.792 0.000967347 13 0.000967347C11.2048 0.000967347 9.42584 -0.0152937 7.63387 0.0855244C5.55247 0.186343 3.70522 0.661163 2.18319 2.18319C0.657911 3.70847 0.186343 5.55247 0.0855244 7.63387C-0.0152937 9.42909 0.000967347 11.208 0.000967347 13C0.000967347 14.792 -0.0152937 16.5742 0.0855244 18.3661C0.186343 20.4475 0.661164 22.2948 2.18319 23.8168C3.70847 25.3421 5.55247 25.8137 7.63387 25.9145C9.42909 26.0153 11.208 25.999 13 25.999C14.7952 25.999 16.5742 26.0153 18.3661 25.9145C20.4475 25.8137 22.2948 25.3388 23.8168 23.8168C25.3421 22.2915 25.8137 20.4475 25.9145 18.3661C26.0185 16.5742 25.999 14.7952 25.999 13ZM12.9967 19.6703C9.3055 19.6703 6.32649 16.6912 6.32649 13C6.32649 9.30876 9.3055 6.32974 12.9967 6.32974C16.688 6.32974 19.667 9.30876 19.667 13C19.667 16.6912 16.688 19.6703 12.9967 19.6703ZM19.9402 7.61436C19.0784 7.61436 18.3824 6.91839 18.3824 6.05656C18.3824 5.19473 19.0784 4.49876 19.9402 4.49876C20.802 4.49876 21.498 5.19473 21.498 6.05656C21.4983 6.2612 21.4581 6.46389 21.3799 6.65301C21.3017 6.84212 21.187 7.01396 21.0423 7.15866C20.8976 7.30337 20.7258 7.41811 20.5366 7.4963C20.3475 7.5745 20.1448 7.61462 19.9402 7.61436Z" fill="white"/>
</svg>
