<svg width="343" height="63" viewBox="0 0 343 63" fill="none" xmlns="http://www.w3.org/2000/svg">
<path d="M25.571 48.543L44.9963 23.6669L52.8327 29.8791L27.4298 62.41L0 40.6672L25.4029 8.13632L33.2394 14.3485L13.814 39.2247L17.9056 42.467L18.9515 41.1274L22.2438 43.737L21.1979 45.0767L25.571 48.543Z" fill="white"/>
<path d="M63.9174 40.2266V62.1753H54.0617V27.6796H64.9013L88.5574 49.6373V27.6796H98.4056V62.1753H87.5659L63.9174 40.2266Z" fill="white"/>
<path d="M113.381 27.6795H138.021C151.157 27.6795 157.725 31.7922 157.725 39.9995C157.725 45.962 154.26 49.7629 147.331 51.4113L158.095 62.1752H144.152L134.296 52.3195H123.237V62.1752H113.381V27.6795ZM123.237 37.5352V42.4638H138.021C144.589 42.4638 147.877 41.6479 147.877 39.9995C147.877 38.3602 144.589 37.5352 138.021 37.5352H123.237Z" fill="white"/>
<path d="M170.043 52.3195H184.827C191.395 52.3195 194.683 50.6802 194.683 47.3909V37.5352H179.899C173.331 37.5352 170.043 39.1837 170.043 42.4638V52.3195ZM160.187 62.1752V42.4638C160.187 32.6081 166.755 27.6795 179.899 27.6795H204.529V47.3909C204.529 57.2466 197.962 62.1752 184.826 62.1752H160.186H160.187Z" fill="white"/>
<path d="M241.491 52.3195V27.6795H251.339V62.1752H226.708C213.565 62.1752 206.997 57.2466 206.997 47.3909V27.6795H216.853V47.3909C216.853 50.6787 220.14 52.3195 226.708 52.3195H241.493H241.491Z" fill="white"/>
<path d="M280.907 37.5352V62.1752H271.052V37.5352H253.803V27.6795H298.147V37.5352H280.907Z" fill="white"/>
<path d="M310.469 52.3195H342.492V62.1752H300.613V27.6795H342.492V37.5352H310.469V39.9995H340.036V49.8553H310.469V52.3195Z" fill="white"/>
<path d="M22.2008 38.5146L23.9143 39.7316L22.6973 41.4451L20.9838 40.2281L22.2008 38.5146ZM24.6349 35.086L26.3484 36.3031L25.1314 38.0166L23.4179 36.7996L24.6349 35.086ZM27.0689 31.6575L28.7824 32.8745L27.5654 34.5895L25.8519 33.3726L27.0689 31.6575ZM29.5029 28.229L31.2165 29.446L29.9994 31.161L28.2859 29.944L29.5029 28.229ZM31.9385 24.8004L33.652 26.0175L32.435 27.7325L30.7215 26.5155L31.9385 24.8004ZM35.311 23.6818L34.8705 24.3024L33.157 23.0854L33.5975 22.4648L33.6399 22.4088L35.311 23.6818ZM34.8191 21.3507L36.0951 23.0218L36.0512 23.0536L35.8544 23.208L35.6894 23.3443L35.5532 23.4624L35.4427 23.5638L35.3625 23.641L35.3049 23.7L35.2671 23.7393L35.2565 23.753L35.2686 23.7393L33.6399 22.4103L33.6717 22.3725L33.7216 22.3165L33.7912 22.2423L33.8866 22.1454L34.0092 22.0273L34.1561 21.8926L34.3332 21.7382L34.539 21.5687L34.7751 21.384L34.8191 21.3522V21.3507ZM38.6139 19.1074L39.5312 20.9996L39.4358 21.0449L38.9 21.3129L38.405 21.5717L37.9539 21.8215L37.7511 21.9396L36.6779 20.1322L36.9201 19.9914L37.4105 19.7205L37.9433 19.4404L38.5185 19.1543L38.6139 19.109V19.1074ZM42.5859 17.4545L43.323 19.4238L42.8296 19.6024L42.0515 19.9021L41.3961 20.1685L40.5893 18.2265L41.281 17.9464L42.0939 17.6346L42.5874 17.456L42.5859 17.4545ZM46.6547 16.1421L47.2571 18.1568L46.4745 18.3839L45.4801 18.6912L45.2772 18.7578L44.6097 16.7642L44.8458 16.687L45.8721 16.3707L46.6547 16.1436V16.1421ZM50.7871 15.0749L51.2669 17.1214L51.0489 17.1714L49.8138 17.4711L49.2552 17.6164L48.7148 15.5835L49.3036 15.4322L50.5691 15.1264L50.7871 15.0764V15.0749ZM54.9543 14.2136L55.3342 16.2813L55.1435 16.3146L53.7085 16.5901L53.3044 16.6749L52.8533 14.6208L53.2953 14.5285L54.7636 14.2454L54.9543 14.2121V14.2136ZM59.1336 13.534L59.456 15.6108L58.2057 15.797L57.3929 15.9287L57.0432 13.8564L57.8848 13.7202L59.1352 13.534H59.1336ZM63.3387 12.983L63.5885 15.0704L63.1888 15.1158L61.5132 15.3262L61.2407 13.2418L62.9391 13.0284L63.3387 12.983ZM67.5407 12.5395L67.7496 14.6314L66.7112 14.7298L65.6683 14.8388L65.4397 12.7499L66.5038 12.6379L67.5422 12.5395H67.5407ZM71.7503 12.1868L71.9199 14.2817L70.3395 14.4028L69.834 14.4467L69.6463 12.3533L70.17 12.3079L71.7503 12.1868ZM75.9751 11.9204L76.0871 14.0199L75.8873 14.029L74.0315 14.1379L74.0087 14.1395L73.8589 12.043L73.9013 12.0399L75.7768 11.931L75.9766 11.9219L75.9751 11.9204ZM80.1968 11.7433L80.2694 13.8443L79.5928 13.864L78.1775 13.92L78.0852 11.8205L79.5201 11.763L80.1968 11.7433ZM84.4215 11.6585L84.4533 13.761L83.2544 13.7716L82.3629 13.7898L82.3099 11.6888L83.2242 11.6691L84.423 11.6585H84.4215ZM88.6614 11.6752L88.6235 13.7777L88.5645 13.7762L86.8268 13.755H86.5452L86.5361 11.6525H86.8404L88.6039 11.6736L88.6629 11.6752H88.6614ZM92.8907 11.8235L92.7983 13.923L91.9189 13.8776L90.7124 13.8322L90.7775 11.7312L92.0127 11.7781L92.8922 11.8235H92.8907ZM97.1351 12.1353L96.9398 14.2288L96.5629 14.1894L95.0734 14.0638L94.8812 14.0501L95.0053 11.9507L95.2324 11.9658L96.7582 12.0945L97.1351 12.1338V12.1353ZM101.375 12.7014L101.033 14.7752L100.6 14.6965L99.3299 14.5058L99.006 14.4649L99.2437 12.376L99.616 12.4229L100.941 12.6227L101.373 12.7014H101.375ZM104.442 13.3796L103.868 15.4019L103.022 15.1839L103.505 13.1374L104.442 13.3796ZM90.7064 10.7352L90.7836 10.4612L91.6782 10.4157L91.7251 6.02298L93.3811 6.49225L95.0795 10.8199L101.249 11.9794L101.31 11.9718H101.373L101.439 11.9779L101.505 11.9885L101.573 12.0021L101.643 12.0188L101.714 12.0384L101.785 12.0581L101.856 12.0778L101.929 12.0975L102 12.1141L102.071 12.1293L102.141 12.1399L102.211 12.1459H102.277L102.342 12.1399L102.406 12.1262L102.468 12.1035L102.527 12.0732L102.581 12.0309L102.634 11.9779L102.683 11.9128L102.727 11.8341L102.768 11.7417L102.802 11.6343L102.833 11.5101L102.858 11.3694L102.878 11.2104L102.892 11.0318L102.901 10.8335L102.902 10.614L102.898 10.3734L102.961 8.05288L101.69 0L102.771 0.307249L102.896 0.345091L103.014 0.385964L103.125 0.429867L103.229 0.476801L103.328 0.526765L103.418 0.579722L103.505 0.634232L103.585 0.691735L103.661 0.752305L103.73 0.814353L103.797 0.879432L103.859 0.946063L103.918 1.01569L103.972 1.08683L104.025 1.161L104.074 1.23668L104.121 1.31388L104.166 1.39411L104.21 1.47586L104.252 1.55908L104.293 1.64386L104.334 1.73015L104.375 1.81792L104.416 1.90724L104.457 1.99808L104.499 2.09039L104.542 2.18274L104.587 2.27809L104.634 2.37347L104.682 2.47033L104.734 2.56875L104.788 2.66712L105.463 4.33977L106.842 4.73031L106.989 4.7757L107.121 4.82566L107.239 4.87865L107.343 4.93464L107.434 4.9937L107.513 5.05423L107.578 5.11628L107.631 5.17988L107.673 5.24496L107.704 5.31004L107.723 5.37512L107.734 5.44023V5.50531L107.725 5.56887L107.707 5.63096L107.68 5.69149L107.645 5.74903L107.602 5.80502L107.554 5.8565L107.498 5.90491L107.436 5.94881L107.368 5.98969L107.295 6.02601L107.216 6.05628L107.133 6.08204L107.045 6.1017L106.954 6.11534L106.861 6.1214L106.764 6.11988L106.665 6.11079L106.564 6.09412L106.461 6.06992L105.902 5.91097L106.932 8.59025L108.302 8.97925L108.423 9.01709L108.535 9.05796L108.638 9.10338L108.732 9.15031L108.816 9.20024L108.892 9.25323L108.959 9.30774L109.018 9.36525L109.068 9.42426L109.11 9.48332L109.145 9.54385L109.174 9.60594L109.193 9.66799L109.207 9.73003L109.213 9.79061V9.85114L109.205 9.91019L109.192 9.9677L109.172 10.0237L109.146 10.0782L109.116 10.1312L109.08 10.1811L109.037 10.228L108.99 10.272L108.937 10.3113L108.88 10.3476L108.818 10.3794L108.751 10.4067L108.682 10.4294L108.606 10.446L108.527 10.4581L108.445 10.4642L107.654 10.2402L109.166 14.2288L113.993 15.8968L114.123 15.9392L114.257 15.9922L114.39 16.0543L114.524 16.1254L114.658 16.2041L114.788 16.2904L114.914 16.3828L115.035 16.4812L115.15 16.5826L115.257 16.6885L115.357 16.7975L115.446 16.908L115.525 17.02L115.592 17.1336L115.645 17.2471L115.682 17.3591L115.705 17.4681L115.71 17.5756L115.696 17.68L115.663 17.7799L115.61 17.8753L115.534 17.9631L115.436 18.0448L115.313 18.119L115.165 18.1841L114.989 18.2401L114.785 18.287L114.552 18.3233L114.288 18.3476L113.993 18.3581L113.665 18.3566L113.303 18.3415L108.321 17.2198L104.949 19.7886L105.471 19.9369L105.569 19.9702L105.66 20.0111L105.743 20.058L105.819 20.111L105.886 20.1701L105.946 20.2336L105.998 20.3017L106.042 20.3714L106.078 20.444L106.107 20.5197L106.126 20.5954L106.139 20.6711L106.142 20.7468L106.137 20.8224L106.123 20.8951L106.102 20.9648L106.072 21.0313L106.033 21.0949L105.986 21.154L105.93 21.2069L105.865 21.2539L105.792 21.2932L105.71 21.325L105.619 21.3492L105.519 21.3628L105.41 21.3689L105.292 21.3628L105.165 21.3462L105.029 21.3174L104.884 21.275L104.729 21.2206L104.564 21.1509L103.464 20.8391L101.19 22.5466L102.026 22.7842L102.124 22.816L102.214 22.8538L102.294 22.8962L102.366 22.9431L102.43 22.9946L102.486 23.0506L102.533 23.1097L102.572 23.1702L102.604 23.2338L102.628 23.2989L102.645 23.3639L102.654 23.4305V23.4972L102.648 23.5623L102.634 23.6273L102.613 23.6909L102.584 23.7515L102.55 23.8105L102.507 23.8665L102.459 23.9179L102.403 23.9649L102.339 24.0073L102.27 24.0451L102.194 24.0769L102.112 24.1027L102.023 24.1223L101.927 24.1344L101.826 24.139L101.719 24.136L101.605 24.1238L101.485 24.1027L101.36 24.0723L99.7129 23.6046L99.7053 23.6122L99.6842 23.6334L99.6508 23.6667L99.6054 23.7121L99.5479 23.7681L99.4798 23.8347L99.4011 23.9104L99.3148 23.9936L99.2194 24.0845L99.115 24.1814L99.0045 24.2828L98.8879 24.3887L98.7653 24.4977L98.6397 24.6097L98.5095 24.7217L98.3763 24.8337L98.2401 24.9458L98.1023 25.0563L97.9631 25.1638L97.8253 25.2682L97.6876 25.3681L97.5513 25.462L97.4166 25.5497L97.2849 25.63L97.1563 25.7026L97.0337 25.7647L96.9156 25.8176L96.8036 25.8585L96.6976 25.8873L96.5992 25.9024L96.5099 25.9039L96.4282 25.8903L94.5118 25.3469L99.8794 18.953L99.9339 18.8577L99.9884 18.7638L100.041 18.6715L100.094 18.5807L100.147 18.4914L100.199 18.4035L100.25 18.3173L100.3 18.2325L100.35 18.1477L100.399 18.066L100.446 17.9842L100.492 17.9025L100.539 17.8238L100.585 17.7451L100.629 17.6664L100.673 17.5892L100.715 17.512L100.756 17.4363L100.797 17.3606L100.836 17.2849L100.874 17.2093L100.91 17.1351L100.945 17.0594L100.978 16.9852L101.012 16.9111L101.043 16.8369L101.074 16.7612L101.103 16.6855L101.13 16.6098L101.155 16.5341L101.18 16.4585L101.202 16.3813L101.225 16.3056L101.251 16.2329L101.277 16.1617L101.304 16.0921L101.331 16.0255L101.358 15.9605L101.384 15.8968L101.408 15.8348L101.429 15.7743L101.449 15.7152L101.464 15.6577L101.476 15.6017L101.484 15.5457L101.485 15.4912L101.481 15.4382L101.47 15.3852L101.454 15.3322L101.428 15.2808L101.395 15.2293L101.352 15.1778L101.301 15.1279L101.239 15.0764L101.166 15.0265L101.083 14.975L100.987 14.9236L100.88 14.8721L100.759 14.8191L100.624 14.7661L100.476 14.7116L100.312 14.6571L100.134 14.6012L99.9384 14.5436L94.5497 12.7166L90.8396 15.4836L89.1836 15.0144L91.4541 11.2347L90.7155 10.7352H90.7064Z" fill="white"/>
</svg>
