<svg width="24" height="24" viewBox="0 0 24 24" fill="none" xmlns="http://www.w3.org/2000/svg">
<path d="M0.754787 12.5256L5.11554 14.4342L17.6824 7.57908L10.1029 16.4211L20.9669 21.3676C21.1527 21.449 21.3553 21.4844 21.5577 21.4709C21.7601 21.4574 21.9562 21.3954 22.1296 21.2901C22.3029 21.1848 22.4484 21.0393 22.5536 20.8659C22.6588 20.6925 22.7208 20.4963 22.7341 20.2939L23.9974 1.34671C24.0115 1.12741 23.9682 0.908222 23.8718 0.710719C23.7755 0.513216 23.6293 0.344203 23.4478 0.220313C23.2663 0.0964224 23.0557 0.0219238 22.8366 0.00414796C22.6176 -0.0136279 22.3976 0.0259314 22.1985 0.118933L0.723205 10.2241C0.504144 10.328 0.319542 10.4927 0.191356 10.6985C0.0631695 10.9043 -0.00320744 11.1426 0.00011918 11.385C0.0034458 11.6274 0.0763358 11.8638 0.210121 12.066C0.343906 12.2682 0.532956 12.4277 0.754787 12.5256V12.5256ZM7.57636 24L13.6097 21.0746L7.57636 18.2603V24Z" fill="black"/>
</svg>
