<svg width="35" height="29" viewBox="0 0 35 29" fill="none" xmlns="http://www.w3.org/2000/svg">
<g clip-path="url(#clip0_753_4)">
<path d="M10.7793 27.8409C11.3498 26.0435 13.1511 19.9232 13.8947 17.3899C11.7511 17.2538 9.48115 16.9417 7.48093 16.418C5.75174 17.705 2.42731 20.1144 1.65593 20.1852C0.331281 20.3081 0.108723 19.9913 0.740118 18.917C1.37151 17.8426 3.29726 14.2769 3.29726 14.2769C3.29726 14.2769 1.71403 10.5832 1.18482 9.46766C0.655605 8.35214 0.907654 8.05161 2.21563 8.27057C2.97778 8.39851 6.06498 11.0386 7.66834 12.4471C9.71096 12.07 12.0028 11.924 14.1526 11.9426C13.6472 9.36386 12.426 3.13483 12.025 1.30218C11.6735 -0.307221 12.9101 0.354448 12.9101 0.354448C13.4807 0.647776 14.6121 1.3859 15.0135 1.94326C17.5108 5.40612 21.2687 10.9367 22.1508 12.2383L24.4529 12.3243C33.7759 12.6623 34.576 14.7755 34.5466 15.4112C34.5173 16.047 33.5216 18.0941 24.1976 17.7574L21.8962 17.676C20.8955 18.9083 16.6305 24.1487 13.8175 27.4196C13.3646 27.9457 12.1676 28.6002 11.5728 28.8507C11.5715 28.8497 10.2765 29.4191 10.7793 27.8409Z" fill="white"/>
</g>
<defs>
<clipPath id="clip0_753_4">
<rect width="35" height="29" fill="white"/>
</clipPath>
</defs>
</svg>
