<svg width="26" height="27" viewBox="0 0 26 27" fill="none" xmlns="http://www.w3.org/2000/svg">
<path d="M13 0C5.824 0 0 6.048 0 13.5C0 20.952 5.824 27 13 27C20.176 27 26 20.952 26 13.5C26 6.048 20.176 0 13 0ZM13 4.05C15.158 4.05 16.9 5.859 16.9 8.1C16.9 10.341 15.158 12.15 13 12.15C10.842 12.15 9.1 10.341 9.1 8.1C9.1 5.859 10.842 4.05 13 4.05ZM13 23.22C11.4554 23.22 9.93484 22.8231 8.57386 22.0646C7.21288 21.3061 6.05381 20.2096 5.2 18.873C5.239 16.1865 10.4 14.715 13 14.715C15.587 14.715 20.761 16.1865 20.8 18.873C19.9462 20.2096 18.7871 21.3061 17.4261 22.0646C16.0652 22.8231 14.5446 23.22 13 23.22Z" fill="black"/>
</svg>
