<svg width="25" height="26" viewBox="0 0 25 26" fill="none" xmlns="http://www.w3.org/2000/svg">
<path d="M12.5 0C5.6075 0 0 5.8318 0 13C0 20.1682 5.6075 26 12.5 26C19.3925 26 25 20.1682 25 13C25 5.8318 19.3925 0 12.5 0ZM13.75 20.8H11.25V18.2H13.75V20.8ZM14.97 14.4495C14.725 14.6549 14.4887 14.8512 14.3012 15.0462C13.7912 15.5753 13.7513 16.0563 13.75 16.0771V16.25H11.25V16.0329C11.25 15.8795 11.2863 14.5028 12.5325 13.2067C12.7763 12.9532 13.0787 12.6958 13.3963 12.428C14.3138 11.6545 14.9162 11.0903 14.9162 10.3129C14.9017 9.65616 14.6406 9.03142 14.1888 8.57235C13.737 8.11328 13.1304 7.85634 12.4988 7.85651C11.8671 7.85668 11.2606 8.11395 10.8091 8.57326C10.3575 9.03258 10.0967 9.65746 10.0825 10.3142H7.5825C7.5825 7.4945 9.78875 5.2 12.5 5.2C15.2112 5.2 17.4175 7.4945 17.4175 10.3142C17.4175 12.3903 15.9437 13.6292 14.97 14.4495V14.4495Z" fill="black"/>
</svg>
